<svg xmlns="http://www.w3.org/2000/svg" width="81.38" height="81.108" viewBox="0 0 81.38 81.108">
  <g id="Group_9" data-name="Group 9" transform="translate(3857.716 3054.614) rotate(180)">
    <path id="Path_1" data-name="Path 1" d="M4012.215,2973.506h-3.9l-2.934,28.509Z" transform="translate(-191.764 0)"/>
    <path id="Path_2" data-name="Path 2" d="M3975.48,2974.576l-3.814.811,3.058,28.5Z" transform="translate(-163.536 -0.896)"/>
    <path id="Path_3" data-name="Path 3" d="M3925.88,2986.488l-3.562,1.586,8.916,27.238Z" transform="translate(-122.22 -10.87)"/>
    <path id="Path_4" data-name="Path 4" d="M3880.668,3008.723l-3.155,2.292L3891.9,3035.8Z" transform="translate(-84.709 -29.485)"/>
    <path id="Path_5" data-name="Path 5" d="M3841.823,3040.306l-2.609,2.9,19.224,21.256Z" transform="translate(-52.643 -55.928)"/>
    <path id="Path_6" data-name="Path 6" d="M3811.042,3079.859l-1.95,3.377,23.223,16.795Z" transform="translate(-27.424 -89.043)"/>
    <path id="Path_7" data-name="Path 7" d="M3789.668,3125.654l-1.206,3.709,26.208,11.6Z" transform="translate(-10.153 -127.383)"/>
    <path id="Path_8" data-name="Path 8" d="M3778.638,3175.688l-.408,3.878,28.047,5.9Z" transform="translate(-1.586 -169.273)"/>
    <path id="Path_9" data-name="Path 9" d="M3776.336,3227.774l.408,3.878,28.66-.063Z" transform="translate(0 -212.881)"/>
    <path id="Path_10" data-name="Path 10" d="M3782.863,3267.749l1.205,3.708,28.021-6.02Z" transform="translate(-5.465 -244.414)"/>
    <path id="Path_11" data-name="Path 11" d="M3800.03,3286.127l1.95,3.377,26.157-11.714Z" transform="translate(-19.838 -254.755)"/>
    <path id="Path_12" data-name="Path 12" d="M3827.087,3301.73l2.609,2.9,23.15-16.9Z" transform="translate(-42.491 -263.079)"/>
    <path id="Path_13" data-name="Path 13" d="M3862.852,3313.879l3.155,2.292,19.131-21.34Z" transform="translate(-72.434 -269.023)"/>
    <path id="Path_14" data-name="Path 14" d="M3905.761,3322.041l3.563,1.586,14.275-24.851Z" transform="translate(-108.359 -272.325)"/>
    <path id="Path_15" data-name="Path 15" d="M3953.939,3325.858l3.814.811,8.8-27.277Z" transform="translate(-148.695 -272.842)"/>
    <path id="Path_16" data-name="Path 16" d="M4005.281,3325.165h3.9l2.934-28.509Z" transform="translate(-191.679 -270.551)"/>
    <path id="Path_17" data-name="Path 17" d="M4057.542,3319.993l3.814-.811-3.058-28.5Z" transform="translate(-235.434 -265.552)"/>
    <path id="Path_18" data-name="Path 18" d="M4080.9,3310.565l3.563-1.586-8.916-27.238Z" transform="translate(-250.509 -258.064)"/>
    <path id="Path_19" data-name="Path 19" d="M4097.986,3297.3l3.154-2.292-14.384-24.789Z" transform="translate(-259.893 -248.414)"/>
    <path id="Path_20" data-name="Path 20" d="M4111.938,3280.766l2.609-2.9-19.224-21.257Z" transform="translate(-267.066 -237.024)"/>
    <path id="Path_21" data-name="Path 21" d="M4122.149,3261.695l1.949-3.377-23.223-16.8Z" transform="translate(-271.714 -224.392)"/>
    <path id="Path_22" data-name="Path 22" d="M4128.171,3240.917l1.206-3.708-26.208-11.6Z" transform="translate(-273.634 -211.068)"/>
    <path id="Path_23" data-name="Path 23" d="M4129.743,3219.342l.407-3.878-28.047-5.9Z" transform="translate(-272.742 -197.637)"/>
    <path id="Path_24" data-name="Path 24" d="M4126.794,3197.589l-.408-3.878-28.66.063Z" transform="translate(-269.078 -184.363)"/>
    <path id="Path_25" data-name="Path 25" d="M4119.454,3146.6l-1.2-3.709-28.021,6.02Z" transform="translate(-262.8 -141.813)"/>
    <path id="Path_26" data-name="Path 26" d="M4108.043,3098.931l-1.95-3.377-26.157,11.714Z" transform="translate(-254.184 -102.183)"/>
    <path id="Path_27" data-name="Path 27" d="M4093.062,3056.672l-2.61-2.9-23.149,16.9Z" transform="translate(-243.606 -67.203)"/>
    <path id="Path_28" data-name="Path 28" d="M4075.162,3021.667l-3.155-2.292-19.131,21.34Z" transform="translate(-231.528 -38.403)"/>
    <path id="Path_29" data-name="Path 29" d="M4055.129,2995.445l-3.562-1.586-14.276,24.851Z" transform="translate(-218.479 -17.041)"/>
    <path id="Path_30" data-name="Path 30" d="M4033.835,2979.154l-3.814-.811-8.8,27.277Z" transform="translate(-205.028 -4.05)"/>
  </g>
</svg>
